<svg width="37" height="36" viewBox="0 0 37 36" fill="none" xmlns="http://www.w3.org/2000/svg">
<path d="M9.5 25.3125C9.16624 25.3125 8.83998 25.4115 8.56248 25.5969C8.28497 25.7823 8.06868 26.0459 7.94095 26.3542C7.81323 26.6626 7.77981 27.0019 7.84493 27.3292C7.91004 27.6566 8.07076 27.9572 8.30676 28.1932C8.54276 28.4292 8.84344 28.59 9.17079 28.6551C9.49813 28.7202 9.83743 28.6868 10.1458 28.559C10.4541 28.4313 10.7177 28.215 10.9031 27.9375C11.0885 27.66 11.1875 27.3338 11.1875 27C11.187 26.5526 11.009 26.1237 10.6927 25.8073C10.3763 25.491 9.94739 25.313 9.5 25.3125ZM9.5 27.5625C9.38875 27.5625 9.28 27.5295 9.18749 27.4677C9.09499 27.4059 9.02289 27.318 8.98032 27.2153C8.93774 27.1125 8.9266 26.9994 8.94831 26.8903C8.97001 26.7811 9.02359 26.6809 9.10225 26.6023C9.18092 26.5236 9.28115 26.47 9.39026 26.4483C9.49938 26.4266 9.61248 26.4377 9.71526 26.4803C9.81804 26.5229 9.90589 26.595 9.9677 26.6875C10.0295 26.78 10.0625 26.8887 10.0625 27C10.0623 27.1491 10.003 27.2921 9.89756 27.3976C9.79211 27.503 9.64913 27.5623 9.5 27.5625Z" fill="#04151F"/>
<path d="M29.1875 25.3125C28.8537 25.3125 28.5275 25.4115 28.25 25.5969C27.9725 25.7823 27.7562 26.0459 27.6285 26.3542C27.5007 26.6626 27.4673 27.0019 27.5324 27.3292C27.5975 27.6566 27.7583 27.9572 27.9943 28.1932C28.2303 28.4292 28.5309 28.59 28.8583 28.6551C29.1856 28.7202 29.5249 28.6868 29.8333 28.559C30.1416 28.4313 30.4052 28.215 30.5906 27.9375C30.776 27.66 30.875 27.3338 30.875 27C30.8745 26.5526 30.6965 26.1237 30.3802 25.8073C30.0638 25.491 29.6349 25.313 29.1875 25.3125ZM29.1875 27.5625C29.0762 27.5625 28.9675 27.5295 28.875 27.4677C28.7825 27.4059 28.7104 27.318 28.6678 27.2153C28.6252 27.1125 28.6141 26.9994 28.6358 26.8903C28.6575 26.7811 28.7111 26.6809 28.7898 26.6023C28.8684 26.5236 28.9686 26.47 29.0778 26.4483C29.1869 26.4266 29.3 26.4377 29.4028 26.4803C29.5055 26.5229 29.5934 26.595 29.6552 26.6875C29.717 26.78 29.75 26.8887 29.75 27C29.7498 27.1491 29.6905 27.2921 29.5851 27.3976C29.4796 27.503 29.3366 27.5623 29.1875 27.5625Z" fill="#04151F"/>
<path d="M32 10.6875H28.625V10.125H31.4375C31.5301 10.1249 31.6212 10.102 31.7029 10.0583C31.7845 10.0147 31.8542 9.9516 31.9058 9.87469L33.0308 8.18719C33.0871 8.10241 33.1194 8.00395 33.1242 7.90229C33.129 7.80063 33.1062 7.69957 33.0581 7.60984C33.0101 7.52012 32.9387 7.44509 32.8514 7.39273C32.7641 7.34037 32.6643 7.31265 32.5625 7.3125H30.3125V5.625C30.3125 5.47582 30.2532 5.33274 30.1477 5.22725C30.0423 5.12176 29.8992 5.0625 29.75 5.0625H28.0625C27.9371 5.06252 27.8152 5.10446 27.7164 5.18167C27.6175 5.25887 27.5473 5.3669 27.5169 5.48859L27.0605 7.3125H7.8125C7.71991 7.31264 7.62877 7.33555 7.54711 7.3792C7.46545 7.42285 7.39578 7.4859 7.34422 7.56281L6.21922 9.25031C6.16291 9.33509 6.13063 9.43355 6.12581 9.53521C6.121 9.63687 6.14382 9.73793 6.19185 9.82766C6.23989 9.91738 6.31134 9.99241 6.39862 10.0448C6.48589 10.0971 6.58573 10.1249 6.6875 10.125H11.1875V10.6875H7.4743C6.71274 10.688 5.96764 10.9091 5.32911 11.3241C4.69059 11.7391 4.18601 12.3303 3.87641 13.0261C3.87148 13.0373 3.86656 13.0493 3.86234 13.0613L1.09695 20.6191C1.07429 20.6811 1.06263 20.7465 1.0625 20.8125V25.5938C1.06308 26.1157 1.27068 26.6161 1.63977 26.9852C2.00886 27.3543 2.50928 27.5619 3.03125 27.5625H5.60328C5.7385 28.4996 6.20685 29.3565 6.92252 29.9763C7.63819 30.5961 8.55324 30.9373 9.5 30.9373C10.4468 30.9373 11.3618 30.5961 12.0775 29.9763C12.7931 29.3565 13.2615 28.4996 13.3967 27.5625H25.2908C25.426 28.4996 25.8944 29.3565 26.61 29.9763C27.3257 30.5961 28.2407 30.9373 29.1875 30.9373C30.1343 30.9373 31.0493 30.5961 31.765 29.9763C32.4806 29.3565 32.949 28.4996 33.0842 27.5625H33.9688C34.4907 27.5619 34.9911 27.3543 35.3602 26.9852C35.7293 26.6161 35.9369 26.1157 35.9375 25.5938V14.625C35.9363 13.5811 35.5211 12.5802 34.783 11.842C34.0448 11.1039 33.0439 10.6887 32 10.6875ZM28.502 6.1875H29.1875V7.3125H28.2207L28.502 6.1875ZM7.73867 9L8.11344 8.4375H31.5113L31.1366 9H7.73867ZM27.5 10.125V10.6875H12.3125V10.125H27.5ZM4.69344 14.0625H10.625V18.5625H3.04742L4.69344 14.0625ZM2.1875 23.625H3.59375C3.66834 23.625 3.73988 23.6546 3.79262 23.7074C3.84537 23.7601 3.875 23.8317 3.875 23.9063C3.875 23.9808 3.84537 24.0524 3.79262 24.1051C3.73988 24.1579 3.66834 24.1875 3.59375 24.1875H2.1875V23.625ZM9.5 29.8125C8.94374 29.8125 8.39997 29.6476 7.93746 29.3385C7.47495 29.0295 7.11446 28.5902 6.90159 28.0763C6.68872 27.5624 6.63302 26.9969 6.74154 26.4513C6.85006 25.9057 7.11793 25.4046 7.51126 25.0113C7.9046 24.6179 8.40574 24.3501 8.95131 24.2415C9.49688 24.133 10.0624 24.1887 10.5763 24.4016C11.0902 24.6145 11.5295 24.9749 11.8385 25.4375C12.1475 25.9 12.3125 26.4437 12.3125 27C12.3118 27.7457 12.0152 28.4606 11.4879 28.9879C10.9606 29.5152 10.2457 29.8118 9.5 29.8125ZM29.1875 29.8125C28.6312 29.8125 28.0875 29.6476 27.625 29.3385C27.1624 29.0295 26.802 28.5902 26.5891 28.0763C26.3762 27.5624 26.3205 26.9969 26.429 26.4513C26.5376 25.9057 26.8054 25.4046 27.1988 25.0113C27.5921 24.6179 28.0932 24.3501 28.6388 24.2415C29.1844 24.133 29.7499 24.1887 30.2638 24.4016C30.7777 24.6145 31.217 24.9749 31.526 25.4375C31.8351 25.9 32 26.4437 32 27C31.9993 27.7457 31.7027 28.4606 31.1754 28.9879C30.6481 29.5152 29.9332 29.8118 29.1875 29.8125ZM34.8125 24.1875H34.5312C34.4567 24.1875 34.3851 24.1579 34.3324 24.1051C34.2796 24.0524 34.25 23.9808 34.25 23.9063C34.25 23.8317 34.2796 23.7601 34.3324 23.7074C34.3851 23.6546 34.4567 23.625 34.5312 23.625H34.8125V24.1875ZM34.8125 22.5H34.5312C34.1583 22.5 33.8006 22.6482 33.5369 22.9119C33.2732 23.1756 33.125 23.5333 33.125 23.9063C33.125 24.2792 33.2732 24.6369 33.5369 24.9006C33.8006 25.1643 34.1583 25.3125 34.5312 25.3125H34.8125V25.5938C34.8123 25.8175 34.7234 26.032 34.5652 26.1902C34.407 26.3484 34.1925 26.4373 33.9688 26.4375H33.0842C32.949 25.5005 32.4806 24.6435 31.765 24.0237C31.0493 23.4039 30.1343 23.0627 29.1875 23.0627C28.2407 23.0627 27.3257 23.4039 26.61 24.0237C25.8944 24.6435 25.426 25.5005 25.2908 26.4375H13.3967C13.2615 25.5005 12.7931 24.6435 12.0775 24.0237C11.3618 23.4039 10.4468 23.0627 9.5 23.0627C8.55324 23.0627 7.63819 23.4039 6.92252 24.0237C6.20685 24.6435 5.7385 25.5005 5.60328 26.4375H3.03125C2.80753 26.4373 2.59303 26.3484 2.43483 26.1902C2.27664 26.032 2.18769 25.8175 2.1875 25.5938V25.3125H3.59375C3.96671 25.3125 4.3244 25.1643 4.58812 24.9006C4.85184 24.6369 5 24.2792 5 23.9063C5 23.5333 4.85184 23.1756 4.58812 22.9119C4.3244 22.6482 3.96671 22.5 3.59375 22.5H2.1875V21.9375H34.8125V22.5ZM34.8125 20.8125H2.22406L2.63539 19.6875H11.1875C11.3367 19.6875 11.4798 19.6282 11.5852 19.5227C11.6907 19.4173 11.75 19.2742 11.75 19.125V13.5C11.75 13.3508 11.6907 13.2077 11.5852 13.1023C11.4798 12.9968 11.3367 12.9375 11.1875 12.9375H5.225C5.48699 12.5884 5.8266 12.305 6.21698 12.1098C6.60736 11.9145 7.03781 11.8127 7.4743 11.8125H32C32.4364 11.8125 32.8668 11.9142 33.2571 12.1095C33.6474 12.3048 33.9869 12.5883 34.2486 12.9375H29.1875C29.0383 12.9375 28.8952 12.9968 28.7898 13.1023C28.6843 13.2077 28.625 13.3508 28.625 13.5V19.125C28.625 19.2742 28.6843 19.4173 28.7898 19.5227C28.8952 19.6282 29.0383 19.6875 29.1875 19.6875H34.8125V20.8125ZM34.8125 18.5625H29.75V14.0625H34.7563C34.7936 14.2477 34.8124 14.4361 34.8125 14.625V18.5625Z" fill="#04151F"/>
<path d="M13.4375 19.6875H26.9375C27.0867 19.6875 27.2298 19.6282 27.3352 19.5227C27.4407 19.4173 27.5 19.2742 27.5 19.125V13.5C27.5 13.3508 27.4407 13.2077 27.3352 13.1023C27.2298 12.9968 27.0867 12.9375 26.9375 12.9375H13.4375C13.2883 12.9375 13.1452 12.9968 13.0398 13.1023C12.9343 13.2077 12.875 13.3508 12.875 13.5V19.125C12.875 19.2742 12.9343 19.4173 13.0398 19.5227C13.1452 19.6282 13.2883 19.6875 13.4375 19.6875ZM26.375 18.5625H20.75V14.0625H26.375V18.5625ZM14 14.0625H19.625V18.5625H14V14.0625Z" fill="#04151F"/>
</svg>
