<svg width="37" height="36" viewBox="0 0 37 36" fill="none" xmlns="http://www.w3.org/2000/svg">
<path d="M19.5512 27.3895C19.7417 29.8575 15.8443 31.6561 15.5877 29.5945C15.6474 28.5314 16.5601 28.8829 17.188 28.5026C17.567 28.2565 17.7927 27.8402 17.7927 27.3895C17.7969 26.2413 19.5455 26.2399 19.5505 27.3895H19.5512ZM28.6545 15.3527C27.7011 16.297 26.6675 17.1597 25.7091 17.8931C26.1233 20.8933 23.9626 23.4956 24.0603 26.4178C24.0603 29.4194 24.7473 33.9075 20.4512 34.0657H15.4977C14.6124 34.0657 13.846 33.4652 13.6337 32.6053L13.1239 30.5374C13.1148 30.4994 13.081 30.4734 13.043 30.4734C8.70687 30.4432 7.43914 31.1793 6.8668 26.1288C6.09898 25.9474 5.06398 25.7871 4.72508 24.956C4.04094 23.9189 5.68414 21.5128 5.97664 20.5368C6.17844 20.0763 6.28109 19.5883 6.28109 19.0856C6.20023 16.8307 6.85133 14.5547 8.18164 12.7877C8.88476 11.8441 9.73062 11.0524 10.6784 10.4301C8.36586 3.56833 16.8005 -1.25159 21.3758 4.48029C28.0604 -2.89761 37.8718 7.14513 28.6545 15.3527ZM23.9527 19.1636C22.7173 20.1508 21.1859 20.7436 19.7734 19.8098C17.747 18.6082 12.9003 14.8451 11.4364 12.0396C10.741 12.5276 10.1173 13.1308 9.5907 13.8375C8.48398 15.3021 7.96226 17.2083 8.03891 19.0856C8.14508 20.553 6.8218 22.8487 6.30148 24.1769C7.24437 24.3886 8.40383 24.5784 8.58031 25.7252L9.01344 28.1538C9.0718 28.4794 9.35375 28.7156 9.68422 28.7156C11.1995 28.8893 14.3663 28.0033 14.8304 30.1176C14.8986 30.1767 15.272 32.4513 15.497 32.3086H20.4505C24.0181 32.1736 20.9806 26.1844 23.3009 21.7793C23.668 20.9475 23.8859 20.07 23.952 19.1636H23.9527ZM30.6985 8.31232C30.6514 3.5374 24.9245 1.69732 22.1337 6.46661C21.9762 6.73591 21.6873 6.90115 21.3758 6.90115C21.0643 6.90115 20.7753 6.73591 20.6178 6.46661C18.1048 1.84779 12.0418 3.42208 12.053 8.31232C11.5482 11.5136 20.3084 19.4765 22.029 18.3311C24.0631 17.0247 30.6985 12.4425 30.6985 8.31232Z" fill="#04151F"/>
</svg>
