<svg width="37" height="36" viewBox="0 0 37 36" fill="none" xmlns="http://www.w3.org/2000/svg">
<path fill-rule="evenodd" clip-rule="evenodd" d="M3.5 5.80213C3.5 4.25455 4.75455 3 6.30213 3C7.73617 3 8.93876 4.08265 9.08888 5.50879L10.1647 15.7293C9.12851 16.7192 8.75714 18.3053 9.40635 19.7118L12.569 26.5644C12.7426 26.9405 13.1882 27.1046 13.5643 26.931C13.9404 26.7575 14.1046 26.3118 13.931 25.9358L10.7683 19.0833C10.2583 17.9783 10.8543 16.6788 12.0245 16.3444C12.9424 16.0823 13.9169 16.511 14.3438 17.3647L17.5124 23.7021C17.668 24.0129 17.7493 24.3555 17.75 24.7029V24.7083V33.75C17.75 34.1643 18.0858 34.5 18.5 34.5C18.9142 34.5 19.25 34.1643 19.25 33.75V24.7083C19.25 24.3589 19.3313 24.0144 19.4876 23.7021L22.6562 17.3647C23.0831 16.511 24.0576 16.0823 24.9755 16.3444C26.1456 16.6788 26.7417 17.9783 26.2317 19.0833L23.069 25.9358C22.8954 26.3118 23.0595 26.7575 23.4357 26.931C23.8118 27.1046 24.2575 26.9405 24.431 26.5644L27.5936 19.7118C28.243 18.3053 27.8715 16.7192 26.8354 15.7293L27.9111 5.50879C28.0613 4.08265 29.2639 3 30.6979 3C32.2454 3 33.5 4.25457 33.5 5.80215V21.7918C33.5 22.1411 33.4187 22.4856 33.2624 22.798L30.1459 29.0311C29.8856 29.5518 29.75 30.126 29.75 30.7081V33.75C29.75 34.1642 30.0858 34.5 30.5 34.5C30.9142 34.5 31.25 34.1642 31.25 33.75V30.7081C31.25 30.3589 31.3313 30.0144 31.4876 29.702L34.6041 23.4688C34.8644 22.9482 35 22.374 35 21.7918V5.80215C35 3.42613 33.0739 1.5 30.6979 1.5C28.4962 1.5 26.6498 3.16221 26.4194 5.35178L25.4132 14.9097L25.3876 14.9022C23.7757 14.4417 22.0643 15.1946 21.3146 16.694L18.5 22.323L15.6856 16.694C14.9357 15.1946 13.2244 14.4417 11.6124 14.9022L11.5867 14.9097L10.5806 5.35178C10.3502 3.16221 8.5038 1.5 6.30213 1.5C3.92613 1.5 2 3.42613 2 5.80213V21.792C2 22.3741 2.13555 22.9483 2.39591 23.469L5.51244 29.702C5.66867 30.0144 5.75 30.3589 5.75 30.7081V33.75C5.75 34.1642 6.08579 34.5 6.5 34.5C6.91421 34.5 7.25 34.1642 7.25 33.75V30.7081C7.25 30.126 7.11445 29.5518 6.85409 29.0311L3.73756 22.7982C3.58133 22.4858 3.5 22.1412 3.5 21.792V5.80213ZM20 3.75002V5.25002L21.5 5.25C21.9142 5.25 22.25 5.58579 22.25 6V7.50002C22.25 7.91423 21.9142 8.25002 21.5 8.25002H20V9.75002C20 10.1642 19.6642 10.5 19.25 10.5H17.75C17.3358 10.5 17 10.1642 17 9.75002V8.25002L15.5 8.25C15.0858 8.25 14.75 7.91421 14.75 7.5V6C14.75 5.5858 15.0858 5.25003 15.5 5.25L17 5.25002V3.75C17 3.33579 17.3357 3 17.75 3H19.25C19.6642 3 20 3.33579 20 3.75002ZM23.75 7.50002C23.75 8.74264 22.7426 9.75002 21.5 9.75002C21.5 10.9926 20.4926 12 19.25 12H17.75C16.5074 12 15.5 10.9926 15.5 9.75C14.2574 9.75 13.25 8.74264 13.25 7.5V6C13.25 4.75737 14.2573 3.75002 15.5 3.75C15.5 2.50735 16.5074 1.5 17.75 1.5H19.25C20.4926 1.5 21.5 2.50737 21.5 3.75C22.7426 3.75 23.75 4.75735 23.75 6V7.50002Z" fill="#04151F"/>
</svg>
