<svg width="36" height="36" viewBox="0 0 36 36" fill="none" xmlns="http://www.w3.org/2000/svg">
<path d="M19.6364 10.6363C19.4182 10.4181 19.0909 10.4181 18.8727 10.6363C18.3818 11.1272 17.6182 11.1272 17.1273 10.6363C16.9091 10.4181 16.5818 10.4181 16.3637 10.6363C16.1455 10.8545 16.1455 11.1817 16.3637 11.3999C16.8 11.8363 17.4 12.0545 18 12.0545C18.6 12.0545 19.2 11.8363 19.6364 11.3999C19.8546 11.1817 19.8546 10.8545 19.6364 10.6363ZM19.7455 9.21811H20.7273C21.0546 9.21811 21.2727 8.99992 21.2727 8.67265C21.2727 8.34538 21.0546 8.1272 20.7273 8.1272H19.7455C19.4182 8.1272 19.2 8.34538 19.2 8.67265C19.2 8.99992 19.4728 9.21811 19.7455 9.21811ZM16.8 8.67265C16.8 8.34538 16.5818 8.1272 16.2546 8.1272H15.2727C14.9455 8.1272 14.7273 8.34538 14.7273 8.67265C14.7273 8.99992 14.9455 9.21811 15.2727 9.21811H16.2546C16.5273 9.21811 16.8 8.94538 16.8 8.67265Z" fill="#04151F"/>
<path d="M29.8909 20.7818C29.4 20.509 28.9091 20.2909 28.4182 20.1272V16.4181C28.4182 16.0363 28.2 15.709 27.8727 15.4909C27.5454 15.2727 27.1636 15.2727 26.7818 15.4363L25.6909 15.9818C25.0909 15.1636 24.1091 14.6181 23.0727 14.6181H21.2727L20.6182 13.6363C21.6545 12.9818 22.5273 11.8909 23.1273 10.5818C24.6545 10.309 25.0909 7.58177 23.8364 6.6545C23.6727 2.99996 21.3818 0.54541 18 0.54541C14.6182 0.54541 12.3273 2.99996 12.1636 6.6545C10.9091 7.58177 11.3454 10.309 12.8727 10.5818C13.4727 11.9454 14.3454 12.9818 15.3818 13.6363L14.6727 14.6727H12.8727C11.8363 14.6727 10.8545 15.1636 10.2545 16.0363L9.16362 15.4909C8.83635 15.3272 8.39999 15.3272 8.07271 15.5454C7.74544 15.7636 7.52726 16.0909 7.52726 16.4727V20.1818C7.03635 20.3454 6.54544 20.6181 6.05453 20.8363C5.50908 21.109 5.12726 21.6545 5.12726 22.309V25.5272C5.12726 26.1272 5.45453 26.6727 6.05453 27C6.4909 27.2181 6.9818 27.4363 7.47271 27.6545H7.52726V29.6181C7.52726 30.0545 7.74544 30.3818 8.12726 30.6L17.7273 35.509C17.8363 35.4545 17.9454 35.4545 18 35.4545C18.0545 35.4545 18.1636 35.4545 18.2182 35.4L27.8182 30.4909C28.2 30.3272 28.4182 29.9454 28.4182 29.509V27.5454C28.9091 27.3818 29.4 27.109 29.8909 26.8909C30.4363 26.6181 30.8182 26.0727 30.8182 25.4181V22.2C30.8182 21.6 30.4909 21.0545 29.8909 20.7818ZM18 1.63632C20.1818 1.63632 21.7636 2.83632 22.4182 4.79996L22.0909 4.36359C21.9273 4.14541 21.6 4.03632 21.3818 4.19996C19.1454 5.61814 16.9091 5.61814 14.6727 4.19996C14.4545 4.03632 14.1273 4.09086 13.9636 4.36359L13.6363 4.79996C14.2364 2.83632 15.8182 1.63632 18 1.63632ZM13.8 9.81814C13.6909 9.59995 13.5273 9.43632 13.3091 9.43632C13.2545 9.43632 13.2545 9.43632 13.2 9.43632H13.1454C12.9818 9.43632 12.6545 9.10905 12.6 8.50905C12.5454 7.90905 12.7636 7.52723 12.9273 7.47268C13.0909 7.41814 13.1454 7.36359 13.2545 7.19995L14.5636 5.34541C16.9091 6.6545 19.2545 6.6545 21.5454 5.34541L22.8545 7.19995C22.9091 7.30905 23.0182 7.41814 23.1818 7.47268C23.3454 7.52723 23.5636 7.90905 23.5091 8.50905C23.4545 9.10905 23.1273 9.43632 22.9636 9.43632C22.6909 9.38177 22.4182 9.54541 22.3091 9.76359C21.4909 11.9454 19.8545 13.2545 18.1091 13.2545C16.3636 13.2545 14.6182 12 13.8 9.81814ZM18 14.4545C18.5454 14.4545 19.0909 14.3454 19.6363 14.1818L20.4545 15.3818C20.2364 16.0909 19.5818 17.1818 18 17.6181C16.4182 17.1818 15.7091 16.0909 15.5454 15.3818L16.3636 14.1818C16.9091 14.3454 17.4545 14.4545 18 14.4545ZM12.8727 15.7636H14.5091C14.8363 16.7454 15.7636 18.1636 17.7818 18.709H17.8364C17.8909 18.709 17.9454 18.709 17.9454 18.709C18 18.709 18.0545 18.709 18.0545 18.709C20.1273 18.1636 21.0545 16.8 21.3818 15.7636H23.0182C23.6727 15.7636 24.2727 16.0363 24.6545 16.5272L18 19.9636L11.2363 16.5272C11.6182 16.0363 12.2182 15.7636 12.8727 15.7636ZM6.59999 25.909C6.43635 25.8 6.27271 25.6363 6.27271 25.4181V22.2C6.27271 21.9818 6.3818 21.8181 6.59999 21.709C7.79999 21.109 8.56362 20.8363 9.32726 20.7818H9.3818C9.76362 20.7818 10.0363 21.0545 10.0363 21.4363C10.0363 21.8181 9.70908 22.0909 9.3818 22.0909H9.32726H9.27271L7.96362 22.3636C7.6909 22.4181 7.47271 22.6909 7.52726 23.0181C7.5818 23.2909 7.79999 23.4545 8.07271 23.4545C8.12726 23.4545 8.12726 23.4545 8.1818 23.4545L9.3818 23.1818C9.76362 23.1818 10.0363 23.4545 10.0363 23.7818C10.0363 24.109 9.76362 24.3818 9.3818 24.4363L8.1818 24.2181C7.90908 24.1636 7.5818 24.3272 7.52726 24.6545C7.47271 24.9272 7.63635 25.2545 7.96362 25.309L9.27271 25.5818C9.32726 25.5818 9.32726 25.5818 9.3818 25.5818C9.59999 25.5818 9.76362 25.6363 9.87271 25.8C9.9818 25.909 10.0363 26.0727 10.0363 26.2363C10.0363 26.5636 9.65453 26.8363 9.27271 26.8363V27.3818L9.21817 26.8363C8.7818 26.8363 8.34544 26.7272 7.85453 26.509C7.52726 26.4 7.14544 26.2363 6.59999 25.909ZM8.67271 27.8727C8.89089 27.9272 9.05453 27.9272 9.27271 27.9272H9.32726C10.3091 27.9272 11.1273 27.2181 11.1818 26.2909C11.2363 25.8 11.0727 25.3636 10.7454 25.0363C11.0182 24.709 11.2363 24.3272 11.2363 23.8363C11.2363 23.4 11.0727 22.9636 10.7454 22.6363C11.0182 22.309 11.2363 21.9272 11.2363 21.4363C11.2363 20.509 10.4727 19.7454 9.54544 19.6909H9.49089C9.21817 19.6909 8.99999 19.6909 8.7818 19.7454V16.309L17.4545 20.8909V33.9818L8.67271 29.509V27.8727ZM27.3273 29.509L18.5454 34.0363V20.9454L25.7454 17.2363L27.3273 16.4181V19.8545C27.1091 19.8 26.8364 19.8 26.6182 19.8C26.5636 19.8 26.5636 19.8 26.5636 19.8C25.6364 19.8545 24.8727 20.6181 24.8727 21.5454C24.8727 21.9818 25.0363 22.4181 25.3636 22.7454C25.0909 23.0727 24.8727 23.4545 24.8727 23.9454C24.8727 24.3818 25.0363 24.8181 25.3636 25.1454C25.0363 25.4727 24.8727 25.9636 24.9273 26.4C24.9818 27.3272 25.8 28.0363 26.7818 28.0363H26.8364C27.9273 27.8727 26.9454 27.9272 27.3273 29.509ZM29.7273 25.4727C29.7273 25.6909 29.6182 25.8545 29.4 25.9636C28.5818 26.4 27.6545 26.8363 26.7273 26.8909C26.6727 26.8909 26.6182 26.8909 26.6727 26.8909C26.2909 26.8909 25.9636 26.6181 25.9091 26.2909C25.9091 26.1272 25.9636 25.9636 26.0727 25.8545C26.1818 25.6909 26.4 25.6363 26.5636 25.6363C26.6727 25.6363 26.6727 25.6363 27.9818 25.3636C28.2545 25.309 28.4727 25.0363 28.4182 24.709C28.2545 23.8909 27.1636 24.4909 26.5636 24.5454C26.1818 24.5454 25.9091 24.2727 25.9091 23.8909C25.9091 23.5636 26.1818 23.2909 26.5636 23.2909C27.1091 23.3454 28.2545 23.9454 28.4182 23.1272C28.4727 22.8545 28.3091 22.5272 27.9818 22.4727L26.7273 22.1454H26.6727H26.6182C26.2364 22.1454 25.9636 21.8727 25.9636 21.4909C25.9636 21.109 26.2909 20.8363 26.6182 20.8363H26.6727C27.6 20.8363 28.5818 21.3272 29.4 21.7636C29.5636 21.8727 29.7273 22.0363 29.7273 22.2545V25.4727Z" fill="#04151F"/>
</svg>
