<svg width="37" height="36" viewBox="0 0 37 36" fill="none" xmlns="http://www.w3.org/2000/svg">
<g clip-path="url(#clip0_35_43)">
<path d="M4.31543 6.75C5.86873 6.75 7.12793 5.4908 7.12793 3.9375C7.12793 2.3842 5.86873 1.125 4.31543 1.125C2.76213 1.125 1.50293 2.3842 1.50293 3.9375C1.50293 5.4908 2.76213 6.75 4.31543 6.75Z" fill="#EFD6AC"/>
<path d="M31.8779 1.125L32.9208 3.34687L35.2529 3.7035L33.5654 5.43262L33.9637 7.875L31.8779 6.72187L29.7922 7.875L30.1904 5.43262L28.5029 3.7035L30.8351 3.34687L31.8779 1.125ZM29.6279 29.25H35.2529V34.875H29.6279V29.25ZM4.31543 29.25L1.50293 34.875H7.12793L4.31543 29.25Z" fill="#EFD6AC"/>
<path d="M18.3779 13.2279C15.8321 7.75812 7.12793 8.40893 7.12793 15.1932C7.12793 21.6896 15.9856 28.1859 18.3779 29.8132C20.7702 28.1859 29.6279 21.6896 29.6279 15.1932C29.6279 8.40837 20.9238 7.75756 18.3779 13.2279Z" fill="#04151F"/>
<path d="M18.3779 20.8125C19.9312 20.8125 21.1904 19.5533 21.1904 18C21.1904 16.4467 19.9312 15.1875 18.3779 15.1875C16.8246 15.1875 15.5654 16.4467 15.5654 18C15.5654 19.5533 16.8246 20.8125 18.3779 20.8125Z" fill="#EFD6AC"/>
<path d="M18.3779 29.8125C19.4332 29.0948 21.7467 27.4286 24.0029 25.2338V23.0625C24.0029 22.4658 23.7659 21.8935 23.3439 21.4715C22.922 21.0496 22.3497 20.8125 21.7529 20.8125H15.0029C14.4062 20.8125 13.8339 21.0496 13.4119 21.4715C12.99 21.8935 12.7529 22.4658 12.7529 23.0625V25.2338C15.0091 27.4286 17.3227 29.0948 18.3779 29.8125Z" fill="#EFD6AC"/>
<path d="M14.4405 27.5265V27.5625H14.4832C15.6305 28.5259 16.8246 29.4321 18.0613 30.2777C18.1548 30.3406 18.265 30.3742 18.3777 30.3742C18.4904 30.3742 18.6006 30.3406 18.6941 30.2777C19.9308 29.4322 21.125 28.5261 22.2721 27.5625H22.3149V27.5265C25.8361 24.561 30.1899 19.9356 30.1899 15.1926C30.1899 11.4919 27.8156 9.648 25.5943 9.15638C23.1851 8.62313 20.0891 9.48432 18.3774 12.0763C16.6663 9.48488 13.5736 8.62088 11.1605 9.15638C8.93921 9.648 6.5649 11.4919 6.5649 15.1926C6.56546 19.9356 10.9192 24.5604 14.4405 27.5265ZM23.4405 24.9863C23.0723 25.3398 22.6973 25.686 22.3155 26.0246V23.625H21.1905V26.9859C20.2817 27.7372 19.3434 28.4522 18.378 29.1291C17.4125 28.4522 16.4743 27.7372 15.5655 26.9859V23.625H14.4405V26.0246C14.0585 25.6861 13.6834 25.3399 13.3155 24.9863V23.0625C13.3155 22.1321 14.0726 21.375 15.003 21.375H21.753C22.6833 21.375 23.4405 22.1321 23.4405 23.0625V24.9863ZM16.128 18C16.128 16.7591 17.1371 15.75 18.378 15.75C19.6188 15.75 20.628 16.7591 20.628 18C20.628 19.2409 19.6188 20.25 18.378 20.25C17.1371 20.25 16.128 19.2409 16.128 18ZM11.4041 10.2544C11.7917 10.1698 12.1874 10.1276 12.5842 10.1284C14.5867 10.1284 16.799 11.1679 17.8689 13.4646C17.9142 13.5615 17.9862 13.6435 18.0765 13.701C18.1667 13.7585 18.2715 13.789 18.3785 13.789C18.4855 13.789 18.5903 13.7585 18.6806 13.701C18.7708 13.6435 18.8429 13.5615 18.8881 13.4646C20.174 10.7027 23.1108 9.75769 25.3524 10.2544C27.6778 10.7691 29.066 12.6152 29.066 15.1926C29.066 18.2351 26.9606 21.3244 24.566 23.8551V23.0625C24.566 21.5117 23.3043 20.25 21.7535 20.25H20.8873C21.4446 19.6331 21.7532 18.8314 21.7535 18C21.7535 16.1387 20.2398 14.625 18.3785 14.625C16.5172 14.625 15.0035 16.1387 15.0035 18C15.0038 18.8314 15.3125 19.6331 15.8698 20.25H15.0035C13.4527 20.25 12.191 21.5117 12.191 23.0625V23.8556C9.79646 21.3249 7.69102 18.2351 7.69102 15.1931C7.69046 12.6152 9.07871 10.7696 11.4041 10.2544ZM4.31546 7.3125C6.17677 7.3125 7.69046 5.79882 7.69046 3.9375C7.69046 2.07619 6.17677 0.562503 4.31546 0.562503C2.45415 0.562503 0.940462 2.07619 0.940462 3.9375C0.940462 5.79882 2.45471 7.3125 4.31546 7.3125ZM4.31546 1.6875C5.55634 1.6875 6.56546 2.69663 6.56546 3.9375C6.56546 5.17838 5.55634 6.1875 4.31546 6.1875C3.07459 6.1875 2.06546 5.17838 2.06546 3.9375C2.06546 2.69663 3.07459 1.6875 4.31546 1.6875ZM28.1002 4.09613L29.5891 5.62219L29.2365 7.78444C29.22 7.88852 29.2331 7.99513 29.2741 8.09219C29.3151 8.18924 29.3825 8.27286 29.4687 8.33358C29.5548 8.39429 29.6562 8.42967 29.7614 8.43571C29.8666 8.44175 29.9714 8.41821 30.0639 8.36775L31.878 7.36538L33.692 8.36775C33.7845 8.41833 33.8894 8.44195 33.9946 8.43591C34.0999 8.42988 34.2014 8.39444 34.2875 8.33362C34.3736 8.27281 34.441 8.18905 34.4819 8.09187C34.5228 7.99469 34.5356 7.88798 34.5189 7.78388L34.1662 5.62163L35.6551 4.09557C35.7274 4.02154 35.7778 3.92903 35.8009 3.82821C35.824 3.72738 35.8188 3.62215 35.786 3.52407C35.7531 3.42599 35.6938 3.33887 35.6147 3.27228C35.5356 3.20569 35.4396 3.16221 35.3373 3.14663L33.3016 2.83613L32.3865 0.88594C32.3415 0.788904 32.2697 0.706757 32.1795 0.64919C32.0894 0.591623 31.9846 0.561035 31.8777 0.561035C31.7707 0.561035 31.666 0.591623 31.5758 0.64919C31.4857 0.706757 31.4139 0.788904 31.3689 0.88594L30.4531 2.83613L28.418 3.14719C28.316 3.16315 28.2203 3.20683 28.1414 3.27346C28.0625 3.3401 28.0035 3.42713 27.9707 3.52505C27.9379 3.62297 27.9326 3.72802 27.9555 3.82873C27.9783 3.92944 28.0284 4.02194 28.1002 4.09613ZM30.92 3.90319C31.1051 3.8745 31.2643 3.75582 31.3441 3.58594L31.878 2.44913L32.4112 3.58594C32.4911 3.75582 32.6503 3.8745 32.8353 3.90319L34.0858 4.09388L33.1627 5.04C33.1012 5.10298 33.0554 5.17952 33.0289 5.26344C33.0025 5.34737 32.9961 5.43634 33.0103 5.52319L33.2223 6.822L32.1502 6.22969C32.0671 6.18359 31.9736 6.15941 31.8785 6.15941C31.7835 6.15941 31.69 6.18359 31.6068 6.22969L30.5347 6.822L30.7468 5.52319C30.7609 5.43634 30.7544 5.34739 30.728 5.26348C30.7015 5.17957 30.6557 5.10303 30.5943 5.04L29.6713 4.09388L30.92 3.90319ZM35.253 28.6875H29.628C29.4788 28.6875 29.3357 28.7468 29.2302 28.8523C29.1247 28.9577 29.0655 29.1008 29.0655 29.25V34.875C29.0655 35.0242 29.1247 35.1673 29.2302 35.2728C29.3357 35.3782 29.4788 35.4375 29.628 35.4375H35.253C35.4021 35.4375 35.5452 35.3782 35.6507 35.2728C35.7562 35.1673 35.8155 35.0242 35.8155 34.875V29.25C35.8155 29.1008 35.7562 28.9577 35.6507 28.8523C35.5452 28.7468 35.4021 28.6875 35.253 28.6875ZM34.6905 34.3125H30.1905V29.8125H34.6905V34.3125ZM1.50296 35.4375H7.12796C7.22397 35.4379 7.31847 35.4136 7.40242 35.367C7.48637 35.3204 7.55697 35.2531 7.60748 35.1714C7.65798 35.0898 7.6867 34.9965 7.69089 34.9006C7.69508 34.8047 7.6746 34.7093 7.6314 34.6236L4.8189 28.9986C4.62765 28.6172 4.00384 28.6172 3.81259 28.9986L1.00009 34.6236C0.956914 34.7093 0.93643 34.8046 0.940592 34.9005C0.944754 34.9963 0.973423 35.0896 1.02386 35.1712C1.0743 35.2528 1.14482 35.3202 1.2287 35.3668C1.31257 35.4134 1.407 35.4378 1.50296 35.4375ZM4.31546 30.5078L6.21784 34.3125H2.41309L4.31546 30.5078ZM8.81546 3.375H26.8155V4.5H8.81546V3.375ZM8.81546 32.0625H27.9405V33.1875H8.81546V32.0625ZM31.878 9.5625H33.003V27.5625H31.878V9.5625ZM3.75296 8.4375H4.87796V27.5625H3.75296V8.4375Z" fill="#04151F"/>
</g>
<defs>
<clipPath id="clip0_35_43">
<rect width="36" height="36" fill="white" transform="translate(0.5)"/>
</clipPath>
</defs>
</svg>
