<svg width="37" height="36" viewBox="0 0 37 36" fill="none" xmlns="http://www.w3.org/2000/svg">
<path fill-rule="evenodd" clip-rule="evenodd" d="M19.289 9.29064C21.8547 6.90312 26.0562 6.90312 28.622 9.29064C30.0434 10.6134 30.6533 12.3799 30.4674 14.0829C28.4045 13.0489 25.8257 13.3906 24.1038 15.1079L23.75 15.4608L23.3961 15.1079C21.2466 12.964 17.7617 12.964 15.6122 15.1079C13.4626 17.2516 13.4626 20.7274 15.6122 22.8713L19.1993 26.449C18.3911 27.1878 17.09 27.1836 16.2873 26.4367L6.87803 17.6809C4.37399 15.3508 4.37399 11.6208 6.87803 9.29064C9.44376 6.90312 13.6453 6.90312 16.211 9.29064L17.75 10.7227L19.289 9.29064ZM21.3249 28.569L21.2564 28.6329C19.2975 30.4557 16.2024 30.4557 14.2437 28.6329L4.83435 19.8771C1.05522 16.3605 1.05522 10.6111 4.83435 7.09443C8.38782 3.78775 14.0137 3.64192 17.75 6.65691C21.4863 3.64192 27.1121 3.78775 30.6656 7.09443C33.3953 9.63447 34.161 13.3517 32.9295 16.5525C33.9491 18.6052 33.602 21.1617 31.8878 22.8713L25.4499 29.2921C24.5037 30.2359 22.9962 30.2359 22.05 29.2921L21.3249 28.569ZM23.75 19.6977L26.2223 17.232C27.2009 16.2559 28.7907 16.2559 29.7693 17.232C30.7436 18.2035 30.7436 19.7755 29.7693 20.7471L23.75 26.7505L17.7306 20.7471C16.7564 19.7755 16.7564 18.2035 17.7306 17.232C18.7092 16.2559 20.2991 16.2559 21.2777 17.232L23.75 19.6977Z" fill="#04151F"/>
</svg>
