<svg width="36" height="36" viewBox="0 0 36 36" fill="none" xmlns="http://www.w3.org/2000/svg">
<g clip-path="url(#clip0_35_26)">
<path d="M29.7534 9.59198C29.7068 9.49838 29.6349 9.41964 29.546 9.36459C29.4571 9.30955 29.3546 9.2804 29.25 9.2804C29.1454 9.2804 29.0429 9.30955 28.954 9.36459C28.865 9.41964 28.7932 9.49838 28.7465 9.59198L27.6215 11.842C27.5548 11.9755 27.5438 12.1301 27.591 12.2717C27.6382 12.4133 27.7397 12.5304 27.8733 12.5971C28.0068 12.6639 28.1614 12.6749 28.303 12.6277C28.4446 12.5805 28.5617 12.4789 28.6284 12.3454L28.6875 12.2267V34.875H24.75C24.6008 34.875 24.4577 34.9342 24.3522 35.0397C24.2467 35.1452 24.1875 35.2883 24.1875 35.4375C24.1875 35.5866 24.2467 35.7297 24.3522 35.8352C24.4577 35.9407 24.6008 36 24.75 36H28.9687C29.1924 35.9997 29.4069 35.9108 29.5651 35.7526C29.7233 35.5944 29.8123 35.3799 29.8125 35.1562V12.2267L29.8715 12.3454C29.9383 12.4789 30.0554 12.5805 30.197 12.6277C30.3386 12.6749 30.4932 12.6639 30.6267 12.5971C30.7602 12.5304 30.8618 12.4133 30.909 12.2717C30.9562 12.1301 30.9452 11.9755 30.8784 11.842L29.7534 9.59198ZM11.25 34.875H7.31249V12.2267L7.37155 12.3454C7.43831 12.4789 7.55538 12.5805 7.69699 12.6277C7.83861 12.6749 7.99319 12.6639 8.12671 12.5971C8.26023 12.5304 8.36176 12.4133 8.40896 12.2717C8.45617 12.1301 8.44518 11.9755 8.37842 11.842L7.25342 9.59198C7.20674 9.49845 7.13492 9.41978 7.04602 9.36479C6.95712 9.30981 6.85466 9.28068 6.75013 9.28068C6.64559 9.28068 6.54313 9.30981 6.45423 9.36479C6.36533 9.41978 6.29351 9.49845 6.24683 9.59198L5.12183 11.842C5.08877 11.9081 5.06906 11.98 5.0638 12.0537C5.05855 12.1274 5.06786 12.2014 5.09121 12.2715C5.11456 12.3416 5.15148 12.4064 5.19988 12.4622C5.24827 12.5181 5.30719 12.5638 5.37327 12.5969C5.50671 12.6636 5.66121 12.6746 5.80278 12.6275C5.87288 12.6041 5.93769 12.5672 5.99351 12.5188C6.04934 12.4704 6.09509 12.4115 6.12814 12.3454L6.18749 12.2267V35.1562C6.18771 35.3799 6.27668 35.5944 6.43486 35.7526C6.59305 35.9108 6.80753 35.9997 7.03124 36H11.25C11.3992 36 11.5422 35.9407 11.6477 35.8352C11.7532 35.7297 11.8125 35.5866 11.8125 35.4375C11.8125 35.2883 11.7532 35.1452 11.6477 35.0397C11.5422 34.9342 11.3992 34.875 11.25 34.875Z" fill="#04151F"/>
<path d="M13.0753 9.5625H15.5644C14.9786 9.28091 14.4459 8.90032 13.9897 8.4375H13.0756C12.2955 8.43616 11.5467 8.74431 10.9936 9.29436C10.4404 9.84441 10.1281 10.5914 10.125 11.3715V24.1265C10.1266 24.5911 10.3124 25.0361 10.6416 25.3639C10.9709 25.6917 11.4168 25.8755 11.8814 25.875H13.5V35.4375C13.5 35.5867 13.5593 35.7298 13.6648 35.8353C13.7702 35.9407 13.9133 36 14.0625 36C14.2117 36 14.3548 35.9407 14.4602 35.8353C14.5657 35.7298 14.625 35.5867 14.625 35.4375V19.6875C14.625 19.5383 14.5657 19.3952 14.4602 19.2898C14.3548 19.1843 14.2117 19.125 14.0625 19.125C13.9133 19.125 13.7702 19.1843 13.6648 19.2898C13.5593 19.3952 13.5 19.5383 13.5 19.6875V24.75H11.8814C11.7151 24.7508 11.5552 24.6856 11.4368 24.5688C11.3184 24.4519 11.2513 24.2928 11.25 24.1265V11.3715C11.2527 10.8897 11.4464 10.4287 11.7886 10.0895C12.1308 9.7504 12.5935 9.56086 13.0753 9.5625ZM25.875 24.1265V11.3715C25.8719 10.5915 25.5596 9.8445 25.0065 9.29446C24.4534 8.74442 23.7047 8.43623 22.9247 8.4375H22.0103C21.554 8.90035 21.0212 9.28094 20.4353 9.5625H22.9244C23.4062 9.56078 23.8691 9.75029 24.2113 10.0894C24.5536 10.4286 24.7473 10.8897 24.75 11.3715V24.1265C24.7487 24.2928 24.6816 24.4519 24.5632 24.5688C24.4448 24.6856 24.2849 24.7508 24.1186 24.75H22.5V19.6875C22.5 19.5383 22.4407 19.3952 22.3352 19.2898C22.2298 19.1843 22.0867 19.125 21.9375 19.125C21.7883 19.125 21.6452 19.1843 21.5398 19.2898C21.4343 19.3952 21.375 19.5383 21.375 19.6875V35.4375C21.375 35.5867 21.4343 35.7298 21.5398 35.8353C21.6452 35.9407 21.7883 36 21.9375 36C22.0867 36 22.2298 35.9407 22.3352 35.8353C22.4407 35.7298 22.5 35.5867 22.5 35.4375V25.875H24.1186C24.5832 25.8755 25.0291 25.6917 25.3584 25.3639C25.6876 25.0361 25.8734 24.5911 25.875 24.1265ZM18 9C18.89 9 19.76 8.73608 20.5001 8.24162C21.2401 7.74715 21.8169 7.04434 22.1575 6.22208C22.4981 5.39981 22.5872 4.49501 22.4135 3.6221C22.2399 2.74918 21.8113 1.94736 21.182 1.31802C20.5526 0.688685 19.7508 0.260102 18.8779 0.0864683C18.005 -0.0871652 17.1002 0.00194976 16.2779 0.342544C15.4557 0.683138 14.7529 1.25991 14.2584 1.99994C13.7639 2.73996 13.5 3.60999 13.5 4.5C13.5013 5.69307 13.9759 6.83688 14.8195 7.6805C15.6631 8.52413 16.8069 8.99866 18 9ZM18 1.125C18.6675 1.125 19.32 1.32294 19.875 1.69379C20.4301 2.06464 20.8626 2.59174 21.1181 3.20845C21.3735 3.82515 21.4404 4.50375 21.3102 5.15843C21.1799 5.81312 20.8585 6.41448 20.3865 6.88649C19.9145 7.35849 19.3131 7.67993 18.6584 7.81015C18.0037 7.94038 17.3251 7.87354 16.7084 7.6181C16.0917 7.36265 15.5646 6.93007 15.1938 6.37505C14.8229 5.82004 14.625 5.16751 14.625 4.5C14.626 3.60519 14.9819 2.74731 15.6146 2.11459C16.2473 1.48186 17.1052 1.12597 18 1.125ZM18 24.75C17.8508 24.75 17.7077 24.8093 17.6023 24.9148C17.4968 25.0202 17.4375 25.1633 17.4375 25.3125V35.4375C17.4375 35.5867 17.4968 35.7298 17.6023 35.8353C17.7077 35.9407 17.8508 36 18 36C18.1492 36 18.2923 35.9407 18.3977 35.8353C18.5032 35.7298 18.5625 35.5867 18.5625 35.4375V25.3125C18.5625 25.1633 18.5032 25.0202 18.3977 24.9148C18.2923 24.8093 18.1492 24.75 18 24.75ZM35.4375 34.875H33.75V26.008L33.8091 26.1267C33.8421 26.1928 33.8879 26.2518 33.9437 26.3002C33.9996 26.3486 34.0644 26.3856 34.1345 26.409C34.2046 26.4324 34.2787 26.4417 34.3524 26.4364C34.4261 26.4312 34.4981 26.4115 34.5642 26.3784C34.6303 26.3454 34.6893 26.2996 34.7377 26.2438C34.7861 26.1879 34.8231 26.1231 34.8465 26.053C34.8699 25.9829 34.8792 25.9088 34.8739 25.8351C34.8687 25.7614 34.849 25.6894 34.8159 25.6233L33.6909 23.3733C33.6443 23.2797 33.5725 23.2009 33.4835 23.1459C33.3946 23.0909 33.2921 23.0617 33.1875 23.0617C33.0829 23.0617 32.9804 23.0909 32.8915 23.1459C32.8025 23.2009 32.7307 23.2797 32.6841 23.3733L31.5593 25.6233C31.4926 25.7567 31.4816 25.9112 31.5287 26.0528C31.5759 26.1944 31.6773 26.3114 31.8108 26.3782C31.9442 26.4449 32.0987 26.4559 32.2403 26.4088C32.3819 26.3616 32.4989 26.2602 32.5657 26.1267L32.625 26.008V35.4375C32.625 35.5867 32.6843 35.7298 32.7898 35.8353C32.8952 35.9407 33.0383 36 33.1875 36H35.4375C35.5867 36 35.7298 35.9407 35.8352 35.8353C35.9407 35.7298 36 35.5867 36 35.4375C36 35.2883 35.9407 35.1452 35.8352 35.0398C35.7298 34.9343 35.5867 34.875 35.4375 34.875ZM3.31594 23.3733C3.26929 23.2797 3.19746 23.2009 3.10853 23.1459C3.0196 23.0909 2.91709 23.0617 2.8125 23.0617C2.70791 23.0617 2.6054 23.0909 2.51647 23.1459C2.42754 23.2009 2.35571 23.2797 2.30906 23.3733L1.18406 25.6233C1.15101 25.6894 1.1313 25.7614 1.12606 25.8351C1.12082 25.9088 1.13015 25.9829 1.15352 26.053C1.1769 26.1231 1.21386 26.1879 1.26228 26.2438C1.31071 26.2996 1.36967 26.3454 1.43578 26.3784C1.50189 26.4115 1.57387 26.4312 1.6476 26.4364C1.72133 26.4417 1.79537 26.4324 1.86549 26.409C1.93561 26.3856 2.00045 26.3486 2.05629 26.3002C2.11213 26.2518 2.15788 26.1928 2.19094 26.1267L2.25 26.008V34.875H0.5625C0.413316 34.875 0.270242 34.9343 0.164752 35.0398C0.0592632 35.1452 0 35.2883 0 35.4375C0 35.5867 0.0592632 35.7298 0.164752 35.8353C0.270242 35.9407 0.413316 36 0.5625 36H2.8125C2.96168 36 3.10476 35.9407 3.21025 35.8353C3.31574 35.7298 3.375 35.5867 3.375 35.4375V26.008L3.43406 26.1267C3.50082 26.2602 3.61789 26.3618 3.75951 26.409C3.90113 26.4562 4.0557 26.4452 4.18922 26.3784C4.32274 26.3117 4.42427 26.1946 4.47148 26.053C4.51868 25.9114 4.5077 25.7568 4.44094 25.6233L3.31594 23.3733Z" fill="#04151F"/>
</g>
<defs>
<clipPath id="clip0_35_26">
<rect width="36" height="36" fill="white"/>
</clipPath>
</defs>
</svg>
