<svg width="37" height="36" viewBox="0 0 37 36" fill="none" xmlns="http://www.w3.org/2000/svg">
<path d="M34.952 20.2751C34.6272 19.8572 34.1625 19.5705 33.6432 19.468C33.124 19.3655 32.5852 19.4539 32.126 19.7171L26.3156 23.0003C26.2842 22.4066 26.0263 21.8475 25.595 21.4382C25.1636 21.029 24.5917 20.8008 23.9972 20.8007H17.4704C16.672 20.7998 15.8856 20.6072 15.1772 20.2391C14.3906 19.8314 13.5179 19.6178 12.632 19.6163H8.57477V17.7515C8.57478 17.6143 8.52078 17.4826 8.42444 17.3849C8.32809 17.2872 8.19716 17.2314 8.05997 17.2295H2.10197C1.96353 17.2295 1.83076 17.2845 1.73286 17.3824C1.63497 17.4803 1.57997 17.6131 1.57997 17.7515V31.0715C1.57805 31.1413 1.59013 31.2107 1.6155 31.2757C1.64087 31.3407 1.67901 31.4 1.72768 31.45C1.77634 31.5 1.83454 31.5397 1.89883 31.5668C1.96312 31.594 2.03219 31.6079 2.10197 31.6079H8.05997C8.12882 31.6084 8.19709 31.5952 8.26084 31.5692C8.32459 31.5432 8.38256 31.5048 8.43141 31.4563C8.48026 31.4078 8.51904 31.3501 8.54549 31.2865C8.57195 31.2229 8.58557 31.1548 8.58557 31.0859V28.8791L19.6088 31.5143C20.0515 31.6197 20.5106 31.6364 20.9598 31.5635C21.409 31.4906 21.8393 31.3295 22.226 31.0895L34.3796 23.5079C34.643 23.3453 34.8691 23.1287 35.0428 22.8725C35.2166 22.6162 35.3341 22.3261 35.3876 22.0211C35.4408 21.7158 35.4295 21.4027 35.3545 21.102C35.2795 20.8013 35.1424 20.5196 34.952 20.2751ZM7.52717 30.5639H2.62757V18.2735H7.52717V30.5639ZM34.34 21.8375C34.3132 21.9982 34.2525 22.1513 34.1619 22.2866C34.0712 22.422 33.9528 22.5364 33.8144 22.6223L21.65 30.1823C21.3803 30.3495 21.0801 30.4617 20.7669 30.5123C20.4536 30.563 20.1334 30.5512 19.8248 30.4775L8.57477 27.8063V20.6639H12.632C13.35 20.6641 14.0575 20.837 14.6948 21.1679C15.5527 21.6117 16.5044 21.8437 17.4704 21.8447H23.9972C24.3352 21.8447 24.6593 21.979 24.8983 22.218C25.1373 22.457 25.2716 22.7811 25.2716 23.1191C25.2716 23.4571 25.1373 23.7812 24.8983 24.0202C24.6593 24.2592 24.3352 24.3935 23.9972 24.3935H15.9008V25.4411H23.9972C24.4055 25.4408 24.8066 25.3328 25.1599 25.1281C25.5133 24.9233 25.8063 24.6289 26.0096 24.2747L26.0528 24.3503L32.6408 20.6279C32.8826 20.4897 33.1661 20.4434 33.4393 20.4977C33.7125 20.5519 33.9569 20.703 34.1276 20.9231C34.2264 21.0514 34.2965 21.1995 34.3332 21.3572C34.3698 21.515 34.3721 21.6788 34.34 21.8375ZM18.896 10.5875L18.4388 13.4171C18.4238 13.4933 18.426 13.5718 18.4452 13.647C18.4643 13.7222 18.5001 13.7922 18.5497 13.8519C18.5994 13.9116 18.6617 13.9594 18.7322 13.9919C18.8027 14.0244 18.8796 14.0408 18.9572 14.0399C19.0438 14.0411 19.1294 14.02 19.2056 13.9787L21.74 12.5999L24.2888 13.9067C24.3757 13.9509 24.4732 13.97 24.5704 13.9619C24.6675 13.9538 24.7605 13.9189 24.839 13.861C24.9174 13.8031 24.9782 13.7245 25.0145 13.6341C25.0509 13.5436 25.0614 13.4448 25.0448 13.3487L24.53 10.5299L26.5604 8.50671C26.63 8.43805 26.6789 8.35123 26.7016 8.25614C26.7242 8.16104 26.7197 8.06149 26.6886 7.96882C26.6575 7.87615 26.6009 7.79408 26.5254 7.73197C26.4499 7.66986 26.3585 7.6302 26.2616 7.61751L23.4104 7.23591L22.1 4.67991C22.0544 4.5943 21.9865 4.52264 21.9035 4.47257C21.8204 4.42249 21.7253 4.39586 21.6284 4.39551C21.5304 4.39549 21.4345 4.4232 21.3517 4.47545C21.2689 4.52769 21.2025 4.60232 21.1604 4.69071L19.94 7.27191L17.1104 7.71471C17.0134 7.72838 16.9223 7.76924 16.8476 7.83257C16.7729 7.89589 16.7176 7.97907 16.6882 8.0725C16.6588 8.16592 16.6565 8.26575 16.6815 8.36044C16.7066 8.45512 16.7579 8.54079 16.8296 8.60751L18.896 10.5875ZM20.3684 8.27991C20.4524 8.2677 20.532 8.23461 20.5999 8.18366C20.6679 8.13272 20.7219 8.06555 20.7572 7.98831L21.6608 6.11631L22.6004 7.97031C22.639 8.0458 22.6951 8.111 22.7639 8.16046C22.8328 8.20993 22.9125 8.24224 22.9964 8.25471L25.0592 8.53191L23.5832 9.99711C23.5238 10.0574 23.4797 10.131 23.4547 10.2118C23.4296 10.2926 23.4243 10.3782 23.4392 10.4615L23.7992 12.5099L21.9452 11.5631C21.8704 11.5231 21.787 11.5021 21.7022 11.5021C21.6174 11.5021 21.5339 11.5231 21.4592 11.5631L19.6268 12.5495L19.958 10.4975C19.9715 10.4134 19.9644 10.3272 19.9375 10.2463C19.9105 10.1655 19.8645 10.0923 19.8032 10.0331L18.2984 8.59311L20.3684 8.27991ZM28.5296 15.7103L28.22 17.6399C28.208 17.7145 28.2123 17.7907 28.2327 17.8634C28.253 17.9361 28.2889 18.0036 28.3379 18.0611C28.3868 18.1186 28.4476 18.1647 28.5162 18.1965C28.5847 18.2282 28.6593 18.2446 28.7348 18.2447C28.8213 18.2445 28.9065 18.2235 28.9832 18.1835L30.7148 17.2799L32.4644 18.1799C32.5516 18.2244 32.6495 18.2436 32.7471 18.2354C32.8446 18.2272 32.938 18.192 33.0166 18.1336C33.0951 18.0752 33.1559 17.996 33.1919 17.905C33.2279 17.8139 33.2378 17.7147 33.2204 17.6183L32.8604 15.6815L34.2536 14.2919C34.3267 14.2251 34.3794 14.139 34.4056 14.0435C34.4319 13.948 34.4307 13.8471 34.4021 13.7523C34.3735 13.6574 34.3187 13.5726 34.244 13.5076C34.1693 13.4426 34.0778 13.4 33.98 13.3847L32.0288 13.1219L31.1396 11.3651C31.0943 11.2792 31.0265 11.2074 30.9434 11.1573C30.8603 11.1071 30.765 11.0807 30.668 11.0807C30.57 11.0807 30.4741 11.1084 30.3913 11.1606C30.3085 11.2129 30.2421 11.2875 30.2 11.3759L29.3468 13.1507L27.4028 13.4531C27.3065 13.4682 27.2164 13.5099 27.1426 13.5735C27.0688 13.6371 27.0142 13.7201 26.9852 13.8131C26.9557 13.9058 26.9529 14.0049 26.9771 14.0991C27.0013 14.1934 27.0515 14.2789 27.122 14.3459L28.5296 15.7103ZM29.7644 14.1443C29.8479 14.1306 29.9268 14.0969 29.9945 14.0461C30.0622 13.9954 30.1166 13.929 30.1532 13.8527L30.668 12.7727L31.2008 13.8275C31.2397 13.9032 31.2964 13.9682 31.366 14.0171C31.4356 14.0661 31.516 14.0973 31.6004 14.1083L32.7704 14.2667L31.9316 15.1199C31.8714 15.1796 31.8269 15.2532 31.8017 15.3342C31.7766 15.4151 31.7718 15.501 31.7876 15.5843L32 16.7507L30.9452 16.1999C30.8704 16.1599 30.787 16.1389 30.7022 16.1389C30.6174 16.1389 30.5339 16.1599 30.4592 16.1999L29.4188 16.7615L29.606 15.5915C29.6186 15.5079 29.6111 15.4226 29.5842 15.3424C29.5573 15.2623 29.5117 15.1897 29.4512 15.1307L28.58 14.3243L29.7644 14.1443Z" fill="#04151F"/>
<path d="M10.5332 15.7104L10.22 17.64C10.2059 17.7362 10.2185 17.8346 10.2566 17.9241C10.2947 18.0137 10.3568 18.091 10.436 18.1476C10.524 18.211 10.6299 18.245 10.7384 18.2448C10.8249 18.2441 10.91 18.2232 10.9868 18.1836L12.7184 17.28L14.4716 18.18C14.5586 18.2249 14.6565 18.2445 14.7541 18.2365C14.8517 18.2284 14.945 18.1931 15.0235 18.1345C15.102 18.076 15.1624 17.9965 15.1978 17.9052C15.2333 17.8139 15.2424 17.7145 15.224 17.6184L14.864 15.6816L16.2608 14.292C16.3297 14.2232 16.3781 14.1365 16.4003 14.0417C16.4226 13.9469 16.4179 13.8478 16.3868 13.7556C16.3564 13.662 16.3006 13.5788 16.2256 13.5152C16.1505 13.4516 16.0593 13.4102 15.962 13.3956L14.0108 13.1328L13.118 11.376C13.0728 11.2901 13.0049 11.2182 12.9218 11.1681C12.8387 11.118 12.7435 11.0915 12.6464 11.0916C12.549 11.0918 12.4537 11.1196 12.3715 11.1719C12.2892 11.2241 12.2236 11.2987 12.182 11.3868L11.336 13.1508L9.392 13.4532C9.29553 13.4688 9.20521 13.5106 9.13093 13.5741C9.05664 13.6376 9.00124 13.7203 8.9708 13.8132C8.94261 13.9063 8.9408 14.0054 8.96559 14.0994C8.99038 14.1935 9.04079 14.2788 9.1112 14.346L10.5332 15.7104ZM11.768 14.1444C11.8518 14.1303 11.9311 14.0966 11.9994 14.0459C12.0676 13.9952 12.1228 13.929 12.1604 13.8528L12.6716 12.7728L13.208 13.8276C13.2463 13.9029 13.3024 13.9679 13.3714 14.0168C13.4404 14.0657 13.5202 14.0971 13.604 14.1084L14.7776 14.2668L13.9388 15.12C13.8788 15.1799 13.8341 15.2533 13.8084 15.3342C13.7827 15.415 13.7768 15.5008 13.7912 15.5844L14.0036 16.7508L12.9524 16.2C12.8777 16.1599 12.7942 16.139 12.7094 16.139C12.6246 16.139 12.5411 16.1599 12.4664 16.2L11.4224 16.7616L11.6096 15.5916C11.6238 15.5079 11.617 15.4221 11.59 15.3417C11.563 15.2613 11.5166 15.1889 11.4548 15.1308L10.598 14.3136L11.768 14.1444Z" fill="#04151F"/>
</svg>
