<svg width="37" height="36" viewBox="0 0 37 36" fill="none" xmlns="http://www.w3.org/2000/svg">
<path d="M18.4994 30.1341C25.1892 30.1341 30.6323 24.6913 30.6323 18.0011C30.6323 14.4612 29.0902 11.1058 26.4014 8.7956C24.2048 6.90764 21.3984 5.86816 18.4994 5.86816C11.8095 5.86816 6.36639 11.311 6.36639 18.0011C6.36639 20.9005 7.40621 23.7066 9.29315 25.9032C11.6047 28.592 14.9601 30.1341 18.4994 30.1341ZM18.4994 7.56987C20.992 7.56987 23.4046 8.46352 25.293 10.0862C27.6046 12.0729 28.9306 14.9576 28.9306 18.0011C28.9306 23.7528 24.251 28.4324 18.4994 28.4324C15.4569 28.4324 12.5718 27.1063 10.5844 24.7941C8.96175 22.9061 8.06809 20.4938 8.06809 18.0011C8.06809 12.2494 12.7477 7.56987 18.4994 7.56987Z" fill="#04151F"/>
<path d="M18.501 20.9306C19.0411 20.9306 19.5603 20.7852 20.0103 20.5083L22.5164 23.0283C22.7988 23.2964 23.2178 23.2959 23.4995 23.0283C23.7695 22.7583 23.7695 22.3222 23.4995 22.0452L20.9933 19.5252C21.2772 19.0753 21.4295 18.5422 21.4295 18.0022C21.4295 16.6314 20.4741 15.4683 19.1933 15.1637V11.6122C19.1933 11.2314 18.8818 10.9199 18.501 10.9199C18.1203 10.9199 17.8087 11.2314 17.8087 11.6122V15.1637C16.528 15.4683 15.5726 16.6314 15.5726 18.0022C15.5726 19.6152 16.888 20.9306 18.501 20.9306ZM35.7875 27.0917C35.6962 26.7209 35.3237 26.4937 34.9491 26.5856L33.0107 27.0645C36.8068 20.9969 36.418 13.0459 31.9325 7.39065C31.6945 7.09115 31.2591 7.04078 30.9603 7.27842C30.6607 7.51607 30.61 7.9518 30.848 8.2513C34.9869 13.4698 35.3288 20.8156 31.7927 26.4005L31.4268 24.2846C31.3618 23.908 31.0035 23.6562 30.6269 23.7204C30.2497 23.7856 29.9975 24.1436 30.0624 24.5205L30.7148 28.2941C30.7828 28.6903 31.1738 28.9443 31.5633 28.8481L35.2818 27.9297C35.6529 27.8381 35.8794 27.4629 35.7875 27.0917ZM5.20978 9.59714L5.57339 11.727C5.63807 12.1068 5.99935 12.3572 6.37184 12.2929C6.7491 12.2284 7.00263 11.8707 6.93772 11.4938L6.29071 7.70368C6.25893 7.51438 6.14873 7.34704 5.98851 7.24158C5.8276 7.13645 5.63221 7.10197 5.44358 7.14794L1.71972 8.06099C1.34856 8.15193 1.12139 8.52681 1.21198 8.89832C1.30326 9.26949 1.68051 9.49732 2.04965 9.40572L3.99469 8.92887C0.190298 14.9967 0.576425 22.9514 5.067 28.6112C5.30405 28.9098 5.73942 28.9615 6.03921 28.7231C6.33872 28.4854 6.38942 28.05 6.15144 27.7505C2.00875 22.5286 1.6686 15.1811 5.20978 9.59714ZM28.2444 30.349C23.0256 34.4887 15.6803 34.8304 10.0952 31.2937L12.2112 30.9274C12.5877 30.8622 12.8399 30.5039 12.775 30.1273C12.7101 29.7504 12.3504 29.4999 11.9745 29.5631L8.20131 30.2162C8.01201 30.249 7.84502 30.3588 7.74022 30.5198C7.63476 30.6807 7.60162 30.8777 7.6476 31.0643L8.56572 34.7825C8.78515 35.6726 10.1298 35.3388 9.90977 34.4505L9.432 32.5148C12.193 34.2416 15.3399 35.1093 18.4879 35.1093C22.2577 35.1093 26.0235 33.8779 29.1044 31.4342C29.4039 31.1965 29.4546 30.7611 29.2166 30.4613C28.9793 30.1618 28.5433 30.1114 28.2444 30.349ZM8.74489 5.65246C13.9666 1.51019 21.3144 1.16961 26.8985 4.71046L24.7687 5.07407C24.3914 5.13863 24.1379 5.49628 24.2028 5.8732C24.2675 6.25291 24.6288 6.5033 25.0013 6.43908L28.7914 5.79173C29.1874 5.72409 29.4425 5.33505 29.3478 4.94426L28.4351 1.22074C28.3438 0.849572 27.9679 0.624094 27.5974 0.71334C27.2263 0.804274 26.9991 1.17916 27.0897 1.55066L27.5667 3.4952C21.4992 -0.308686 13.5447 0.0777388 7.88491 4.56802C7.5854 4.80566 7.5347 5.24106 7.77268 5.54057C8.00973 5.83922 8.4451 5.89085 8.74489 5.65246ZM18.5 9.71262C18.8807 9.71262 19.1923 9.408 19.1923 9.02031C19.1923 8.63955 18.8807 8.328 18.5 8.328C18.1192 8.328 17.8077 8.63955 17.8077 9.02031C17.8077 9.408 18.1192 9.71262 18.5 9.71262ZM18.5 26.2894C18.1192 26.2894 17.8077 26.6009 17.8077 26.9817C17.8077 27.3694 18.1192 27.674 18.5 27.674C18.8807 27.674 19.1923 27.3694 19.1923 26.9817C19.1923 26.6009 18.8807 26.2894 18.5 26.2894ZM27.4807 18.6933C27.8615 18.6933 28.173 18.3818 28.173 18.001C28.173 17.6202 27.8615 17.3087 27.4807 17.3087C27.093 17.3087 26.7884 17.6202 26.7884 18.001C26.7884 18.3818 27.093 18.6933 27.4807 18.6933ZM9.51934 17.3087C9.13165 17.3087 8.82704 17.6202 8.82704 18.001C8.82704 18.3818 9.13165 18.6933 9.51934 18.6933C9.90011 18.6933 10.2117 18.3818 10.2117 18.001C10.2117 17.6202 9.9001 17.3087 9.51934 17.3087ZM25.3398 12.1402C25.6091 11.871 25.6091 11.4304 25.3398 11.1611C25.0706 10.8919 24.63 10.8919 24.3608 11.1611C24.0866 11.4353 24.0915 11.871 24.3608 12.1402C24.63 12.4095 25.0657 12.4144 25.3398 12.1402ZM12.6392 24.8408C12.9085 24.5716 12.9085 24.131 12.6392 23.8618C12.37 23.5925 11.9294 23.5925 11.6602 23.8618C11.386 24.1359 11.3909 24.5716 11.6602 24.8408C11.9295 25.1101 12.3651 25.115 12.6392 24.8408ZM25.3398 24.8408C25.6091 24.5716 25.6091 24.131 25.3398 23.8618C25.0657 23.5876 24.63 23.5925 24.3608 23.8618C24.0915 24.131 24.0866 24.5667 24.3608 24.8408C24.63 25.1101 25.0706 25.1101 25.3398 24.8408ZM12.6392 12.1403C12.9085 11.871 12.9085 11.4304 12.6392 11.1612C12.3651 10.8871 11.9294 10.892 11.6602 11.1612C11.3909 11.4304 11.386 11.8661 11.6602 12.1403C11.9294 12.4095 12.37 12.4095 12.6392 12.1403Z" fill="#04151F"/>
</svg>
