<svg width="37" height="36" viewBox="0 0 37 36" fill="none" xmlns="http://www.w3.org/2000/svg">
<g clip-path="url(#clip0_35_53)">
<path d="M11.975 4.5C6.8675 4.5 2.75 8.80425 2.75 14.031C2.75 17.2283 4.51625 20.3197 7.106 23.0895C9.6935 25.857 13.1585 28.332 16.8575 30.2512L17.375 30.5212L17.8925 30.2512C21.0042 28.638 23.8617 26.4622 26.195 24.3247C26.9645 24.5767 27.77 24.75 28.625 24.75C32.9608 24.75 36.5 21.2108 36.5 16.875C36.5 13.2975 34.0767 10.296 30.8008 9.342C29.2213 6.46425 26.2175 4.5 22.775 4.5C20.7252 4.5 18.9005 5.31 17.375 6.47325C15.8495 5.30775 14.0247 4.5 11.975 4.5ZM11.975 6.75C13.7502 6.75 15.368 7.45425 16.61 8.6085L17.375 9.32175L18.14 8.6085C19.3927 7.42258 21.05 6.75807 22.775 6.75C24.7932 6.75 26.6023 7.641 27.878 9.07425C23.8955 9.45675 20.75 12.7957 20.75 16.875C20.7535 18.1172 21.0517 19.3408 21.62 20.4454C22.1883 21.55 23.0106 22.504 24.0193 23.229C22.0707 24.9165 19.7735 26.559 17.3795 27.8752C14.099 26.1022 10.976 23.931 8.7485 21.5528C6.38825 19.026 5 16.3755 5 14.0288C5 9.9765 8.132 6.75 11.975 6.75ZM28.625 11.25C31.7458 11.25 34.25 13.7543 34.25 16.875C34.25 19.9957 31.7458 22.5 28.625 22.5C27.8856 22.5024 27.1531 22.3585 26.4696 22.0767C25.7861 21.7948 25.165 21.3806 24.6422 20.8578C24.1194 20.335 23.7052 19.7139 23.4233 19.0304C23.1415 18.3469 22.9976 17.6144 23 16.875C23 13.7543 25.5042 11.25 28.625 11.25ZM25.25 15.75V18H32V15.75H25.25Z" fill="#04151F"/>
</g>
<defs>
<clipPath id="clip0_35_53">
<rect width="36" height="36" fill="white" transform="translate(0.5)"/>
</clipPath>
</defs>
</svg>
